<svg aria-hidden="true" style="width:0;height:0;position:absolute;overflow:hidden" xmlns="http://www.w3.org/2000/svg"><defs><symbol id="icon-arrow_right" viewBox="0 0 32 32"><path stroke-linejoin="round" stroke-linecap="round" stroke-width="5.333" d="M10.667 5.333 23.863 16 10.667 26.667"/></symbol><symbol id="icon-cow" viewBox="0 0 31 32"><path d="M6.002.778c-.254.219-.979 1.733-1.24 2.559-.31 1.024-.416 1.791-.373 2.852.056 1.514.437 2.661 1.275 3.861.218.314.394.585.394.607 0 .015-.134.029-.303.029-.726 0-2.085.241-3.128.556C.972 11.739 0 12.609 0 13.582c0 .344.31.929.641 1.228.641.578 2.043 1.126 3.55 1.389.521.095 2.071.256 2.416.263.063 0 .085.336.085 1.44 0 .951.035 1.689.106 2.142.254 1.623 1.043 3.341 2.085 4.555l.359.417-.24.387c-.352.548-.486.965-.528 1.587-.106 1.492.824 2.815 2.62 3.744 3.423 1.777 8.742 1.082 10.735-1.404.972-1.214 1.085-2.603.317-3.861l-.239-.388.43-.519c.803-.965 1.324-1.93 1.719-3.151.331-1.038.458-2.04.458-3.627 0-.724.021-1.323.056-1.323.324-.007 1.881-.175 2.374-.263 1.515-.263 2.888-.804 3.55-1.389.331-.3.641-.885.641-1.228 0-1.082-1.099-1.96-3.142-2.486-.669-.175-1.93-.387-2.543-.424l-.289-.022.317-.439c.394-.534.888-1.572 1.078-2.252.535-1.967.204-4.255-.944-6.442-.479-.907-.81-1.119-1.198-.76-.148.139-.211.329-.352 1.016-.437 2.186-1.247 3.919-2.43 5.199l-.521.57H9.967l-.465-.505c-1.155-1.272-1.993-3.071-2.43-5.264-.141-.687-.204-.877-.352-1.016-.232-.212-.458-.205-.718.022zm.901 4.336c.373.819.838 1.587 1.388 2.296l.437.563-.458.344a4.6 4.6 0 0 0-1.141 1.331l-.134.241-.338-.461c-1.155-1.594-1.444-3.546-.831-5.571.296-.98.289-.972.556-.124.127.409.366 1.031.521 1.382zm18.336-1.543a7.22 7.22 0 0 1 .402 2.464c0 1.331-.352 2.457-1.092 3.466l-.331.453-.247-.417a4.38 4.38 0 0 0-1.233-1.353c-.19-.124-.338-.249-.338-.263 0-.022.134-.19.303-.373.782-.87 1.62-2.435 2.036-3.78.127-.417.254-.76.275-.76s.127.256.225.563zM21.64 8.916c.782.329 1.529 1.272 1.648 2.069.063.439.211.717.402.76.084.015.669.066 1.296.11 2.226.146 3.98.621 4.727 1.272.345.307.31.563-.106.877-.831.629-2.627 1.104-4.459 1.184-1.212.051-1.465.088-1.627.256-.12.124-.134.256-.134 1.579 0 1.791-.092 2.822-.317 3.656-.317 1.133-.944 2.34-1.677 3.195l-.303.351-.627-.373a7.77 7.77 0 0 0-2.325-.943c-2.67-.636-5.621-.249-7.608 1.002l-.458.293-.289-.344c-.394-.461-1.014-1.448-1.261-2.003-.542-1.258-.704-2.281-.704-4.533 0-2.186.113-2.025-1.507-2.113-2.071-.11-3.649-.483-4.642-1.111-.733-.468-.613-.885.409-1.375.979-.475 2.325-.76 4.191-.877 1.451-.095 1.486-.117 1.62-.819.197-1.06.979-1.938 1.965-2.215.246-.073 1.627-.088 5.854-.08l5.53.015.401.168zm-3.959 15.135c1.726.424 3.015 1.214 3.571 2.193.134.227.19.461.218.819.028.446.007.556-.162.921-.782 1.66-3.656 2.756-6.579 2.508-3.515-.293-5.826-2.252-4.917-4.175.493-1.038 2.163-2.033 3.924-2.325.289-.044.578-.095.634-.11s.69-.015 1.409 0c.979.022 1.451.066 1.902.168z"/><path d="M10.693 12.579c-.437.146-.733.336-1.127.731-.345.329-.373.717-.085.95.268.219.521.19.845-.095.409-.358.726-.504 1.12-.504.394-.007.697.132 1.12.504.324.285.578.314.845.095.141-.117.183-.212.183-.431 0-.227-.049-.329-.296-.578-.697-.702-1.733-.972-2.606-.673zm8.213-.008c-.451.168-1.029.548-1.261.833-.225.278-.232.592 0 .826.232.249.514.234.852-.044.831-.687 1.451-.709 2.219-.073.197.168.423.3.493.3.345 0 .627-.307.627-.673 0-.234-.585-.775-1.113-1.031-.585-.285-1.282-.336-1.817-.139zm-7.192 13.535c-.204.197-.275.483-.169.709.078.183.197.256.683.388.218.058.31.132.387.314.099.241.106.241.648.263l.542.022v-.205c-.007-.293-.169-.717-.38-1.009-.247-.336-.676-.556-1.162-.6-.331-.029-.416-.015-.549.117zm6.728-.052c-.352.095-.859.57-1 .943a2.54 2.54 0 0 0-.134.665c-.014.314.014.388.183.541.416.366.965.08.965-.504 0-.285.211-.483.585-.556.394-.073.535-.234.542-.607 0-.49-.437-.68-1.141-.483z"/></symbol><symbol id="icon-default_arrow" viewBox="0 0 82 32"><path d="M81.414 17.414a2 2 0 0 0 0-2.828L68.686 1.858a2 2 0 1 0-2.828 2.828L77.172 16 65.858 27.314a2 2 0 1 0 2.828 2.828l12.728-12.728zM0 18h80v-4H0v4z"/></symbol><symbol id="icon-facebook" viewBox="0 0 32 32"><path fill="#f8d24e" style="fill:var(--color1,#f8d24e)" d="M16 32c8.837 0 16-7.163 16-16S24.837 0 16 0 0 7.163 0 16s7.163 16 16 16z"/><path fill="#84a178" style="fill:var(--color2,#84a178)" d="M20.446 15.982h-2.61v9.619h-3.955v-9.619H12v-3.38h1.881v-2.187c0-1.564.739-4.014 3.99-4.014l2.929.012v3.281h-2.125c-.349 0-.839.175-.839.921v1.989h2.955l-.346 3.377z"/></symbol><symbol id="icon-focus_arrow" viewBox="0 0 69 32"><path d="M68.081 17.414a2 2 0 0 0 0-2.829L55.353 1.857a2 2 0 1 0-2.828 2.828l11.314 11.314-11.314 11.314a2 2 0 1 0 2.828 2.828l12.728-12.728zM0 18h66.667v-4H0v4z"/></symbol><symbol id="icon-github" viewBox="0 0 32 32"><path fill="#f8d24e" style="fill:var(--color1,#f8d24e)" d="M32 16c0 8.837-7.163 16-16 16S0 24.837 0 16 7.163 0 16 0s16 7.163 16 16z"/><path fill="#84a178" style="fill:var(--color2,#84a178)" d="M16 6.588c-5.169 0-9.412 4.242-9.412 9.412 0 4.411 3.095 8.419 7.206 9.412v-3.114a2.307 2.307 0 0 1-1.197-.03c-.556-.164-1.008-.535-1.344-1.1-.214-.361-.593-.752-.988-.723l-.097-1.099c.855-.073 1.595.521 2.034 1.259.195.328.419.52.708.605.278.082.578.043.926-.08.088-.698.407-.959.648-1.326v-.001c-2.451-.366-3.428-1.666-3.816-2.693-.514-1.363-.238-3.066.671-4.142.018-.021.05-.076.037-.114-.417-1.258.091-2.299.11-2.41.481.142.559-.143 2.089.786l.264.159c.111.066.076.028.186.02A8.031 8.031 0 0 1 16 11.131a8.016 8.016 0 0 1 2.002.285l.086.009c-.007-.001.023-.005.075-.036 1.911-1.157 1.842-.779 2.355-.946.019.111.519 1.169.107 2.411-.056.171 1.657 1.739.708 4.256-.388 1.027-1.365 2.328-3.816 2.693v.001c.314.479.692.734.69 1.722v3.887c4.111-.993 7.206-5 7.206-9.412 0-5.169-4.242-9.412-9.412-9.412z"/></symbol><symbol id="icon-green-face" viewBox="0 0 35 32"><path fill="#fff" style="fill:var(--color3,#fff)" d="M12.353 17.514c1.267.696 3.265-.337 4.462-2.306s1.142-4.129-.125-4.825c-1.267-.696-3.265.337-4.462 2.306s-1.142 4.129.125 4.825z"/><path style="fill:var(--color4,#000)" d="M16.593 10.543c1.152.633 1.178 2.727.055 4.573s-3.045 2.871-4.197 2.238c-1.152-.633-1.178-2.727-.055-4.573s3.046-2.871 4.197-2.238zm.194-.319c-1.36-.747-3.476.316-4.727 2.373s-1.163 4.33.196 5.077c1.36.747 3.476-.316 4.727-2.373s1.165-4.33-.196-5.077z"/><path fill="#fff" style="fill:var(--color3,#fff)" d="M20.081 21.754c1.267.696 3.265-.337 4.462-2.306s1.142-4.129-.125-4.825c-1.267-.696-3.265.337-4.462 2.306s-1.142 4.129.125 4.825z"/><path style="fill:var(--color4,#000)" d="M24.321 14.783c1.152.633 1.178 2.727.055 4.573s-3.045 2.871-4.197 2.238c-1.152-.633-1.178-2.727-.055-4.573s3.046-2.871 4.197-2.238zm.194-.319c-1.36-.747-3.476.316-4.727 2.373s-1.163 4.331.196 5.077c1.359.747 3.476-.316 4.727-2.373s1.165-4.33-.196-5.077zm-11.062 1.241c.711.39 1.823-.175 2.484-1.262s.621-2.285-.089-2.676-1.823.175-2.484 1.262-.621 2.285.089 2.676z"/><path style="fill:var(--color4,#000)" d="M15.816 11.82c.679.373.708 1.535.066 2.592s-1.717 1.613-2.396 1.24c-.679-.373-.708-1.535-.066-2.592s1.718-1.612 2.396-1.24zm.064-.106c-.742-.407-1.894.168-2.573 1.285s-.629 2.352.113 2.76c.742.407 1.894-.168 2.573-1.285s.629-2.352-.113-2.76zm5.301 8.231c.711.39 1.823-.175 2.484-1.262s.621-2.285-.089-2.676c-.711-.39-1.823.175-2.484 1.262s-.621 2.285.089 2.676z"/><path style="fill:var(--color4,#000)" d="M23.544 16.06c.679.373.708 1.535.066 2.592s-1.717 1.613-2.396 1.24c-.679-.373-.708-1.535-.066-2.592s1.718-1.612 2.396-1.24zm.064-.106c-.742-.407-1.894.168-2.573 1.285s-.629 2.352.113 2.76c.742.407 1.894-.168 2.573-1.285s.629-2.352-.113-2.76z"/><path fill="#fff" style="fill:var(--color3,#fff)" d="M14.978 14.2c.428.235 1.035-.004 1.357-.533s.236-1.148-.192-1.383c-.428-.235-1.035.004-1.357.533s-.236 1.148.192 1.383zm7.728 4.24c.428.235 1.035-.004 1.357-.533s.236-1.148-.192-1.383c-.428-.235-1.035.004-1.357.533s-.236 1.148.192 1.383z"/><path style="fill:var(--color4,#000)" d="M15.614 7.608c1.426.096 2.721.811 3.522 1.936.279.391.956.027.676-.366-.967-1.359-2.477-2.193-4.201-2.309-.497-.034-.494.706.003.739zm8.064 4.424c1.426.096 2.721.811 3.522 1.936.279.391.956.027.676-.366-.967-1.359-2.477-2.193-4.201-2.309-.498-.034-.494.706.003.739z"/><path fill="none" stroke="#000" style="stroke:var(--color4,#000)" stroke-miterlimit="10" stroke-width=".464" d="M13.397 24.401c-5.784-3.173-8.851-8.414-6.851-11.706m20.945 11.491c-2 3.292-8.31 3.388-14.093.215M5.153 12.286l2.917.607m18.622 10.642 1.663 1.196"/></symbol><symbol id="icon-hover_arrow" viewBox="0 0 102 32"><path d="M101.414 17.414a2 2 0 0 0 0-2.828L88.686 1.858a2 2 0 1 0-2.828 2.828L97.172 16 85.858 27.314a2 2 0 1 0 2.828 2.828l12.728-12.728zM0 18h100v-4H0v4z"/></symbol><symbol id="icon-ice-cream" viewBox="0 0 32 32"><path d="M16.108.107c.08.214.241 1.252.241 1.573 0 .797-.295 1.54-.837 2.122-.449.482-.897.75-1.975 1.185-1.198.489-1.694.783-2.256 1.339-.569.569-.904 1.192-1.024 1.921-.134.797 0 1.359.408 1.68l.208.161-.328.208c-.663.435-1.868 1.459-2.075 1.774-.402.603-.361 1.165.094 1.392l.214.107-.241.228c-.361.341-.435.576-.382 1.192.033.408.02.629-.074.964-.114.435-.114.442.033.75.147.301.562.683.937.843.181.08.187.107.228.723.02.355.053 1.486.08 2.517.02 1.031.067 1.975.107 2.089a.79.79 0 0 0 .274.361c.388.268.656.556.83.89.194.382.408 1.319 1.058 4.559l.455 2.276.281.268c.536.529 1.56.77 3.247.77 1.694 0 2.705-.234 3.24-.763l.288-.274.415-2.109c.917-4.613.997-4.867 1.714-5.436.221-.181.435-.402.475-.502.047-.114.094-.991.127-2.316.027-1.178.067-2.343.094-2.591l.04-.449.435-.328c.549-.422.763-.803.763-1.393-.007-.696-.462-1.459-1.292-2.142l-.395-.321.194-.274c.81-1.118.301-2.664-1.205-3.695l-.455-.315.167-.174c.743-.797.864-3.173.241-4.827-.375-.984-1.232-2.055-2.283-2.845C17.659.857 16.239 0 16.112 0c-.027 0-.027.047-.007.107zm1.928 2.336c.355.348.783.823.951 1.064.997 1.392 1.252 3.14.649 4.425-.241.522-.964 1.299-1.633 1.761-1.024.71-3.327 1.901-4.934 2.557-2.584 1.051-4.084 1.252-4.258.562-.067-.261.127-.469.951-1.018.743-.509 4.077-2.986 4.137-3.086.02-.027-.321.127-.75.341-1.453.736-2.142.596-2.109-.428.02-.743.556-1.587 1.299-2.069.187-.12.77-.388 1.305-.603 1.761-.71 2.296-1.071 2.892-1.962.355-.529.743-1.506.77-1.921.007-.147.034-.261.054-.261s.321.288.676.636zm1.828 7.606c.489.274.997.743 1.218 1.111.388.663.187 1.325-.649 2.169-.91.924-2.464 1.808-4.171 2.37-1.573.515-3.079.756-5.235.83l-1.339.047.87.054c1.125.074 3.3.007 4.144-.127 2.243-.355 4.151-1.064 5.516-2.042.308-.221.629-.402.716-.402.221 0 1.185.924 1.379 1.312.107.221.134.382.114.596-.1.89-1.185 1.366-3.802 1.68-3.2.382-7.384.007-9.172-.817-.844-.388-.984-.609-.77-1.198.067-.187.08-.408.054-.723-.033-.415-.027-.469.12-.623.335-.361.897-.569 2.959-1.091a28.11 28.11 0 0 0 2.176-.656c1.138-.415 3.274-1.493 4.264-2.156.93-.616 1.064-.643 1.607-.335zm-8.89 8.194c1.406.408 2.651.529 4.967.482 1.741-.034 2.812-.141 4.358-.415.315-.053.589-.1.623-.1.074 0 .053 2.571-.027 3.247-.087.716-.281 1.272-.489 1.406-.214.141-1.285.288-2.718.368-2.939.161-5.958 0-6.895-.375-.509-.207-.562-.475-.569-2.959 0-1.654.013-1.881.1-1.848.053.02.348.107.649.194zm1.586 5.69c.482.06 1.004.121 1.165.141l.288.034-.254.281c-.328.355-.83 1.064-1.011 1.426-.207.415-.274.442-.582.274l-.261-.147-.147-.91c-.08-.495-.167-.971-.187-1.051-.06-.174-.12-.174.991-.047zm7.137-.074c0 .013-.033.187-.067.382-.04.201-.208 1.292-.375 2.43-.341 2.377-.569 3.495-.777 3.869-.288.502-.977.797-2.095.89-.435.034-1.747-.053-1.821-.12-.053-.06 1.098-1.486 1.279-1.58.167-.094.214-.08.783.214.663.348.997.402.997.181s-.174-.435-.602-.73c-.395-.281-.536-.442-.536-.629 0-.053.194-.355.428-.669s.576-.817.75-1.118l.328-.542.301.04c.609.087.77.08.75-.053-.013-.067-.127-.261-.254-.422-.127-.167-.228-.335-.228-.368 0-.127.623-1.299.823-1.546.174-.214.315-.321.315-.228zm-4.184.536c.335.221 1.593 1.312 1.674 1.446.034.06-1.259 2.082-1.513 2.37-.027.034-.167-.033-.308-.141a22.133 22.133 0 0 0-1.165-.803l-.904-.596.542-.917c.964-1.613.944-1.587 1.151-1.587.107 0 .341.1.522.228zm2.537.241c-.234.288-.428.469-.509.469-.174 0-.455-.154-.93-.502l-.395-.288.79-.047c.428-.02.844-.047.917-.06.536-.087.536-.08.127.428zm-5.061 3.22c.616.241 1.66.81 1.962 1.064.214.174.214.187.127.402a6.675 6.675 0 0 1-.415.716c-.174.268-.375.602-.449.743-.214.415-.281.449-.723.328-.475-.141-.73-.382-.864-.817-.181-.609-.469-2.33-.435-2.598.013-.1.295-.04.797.161z"/></symbol><symbol id="icon-orange-face" viewBox="0 0 35 32"><path fill="#fff" style="fill:var(--color3,#fff)" d="M13.369 21.857c1.491-.477 2.034-2.742 1.213-5.059s-2.695-3.809-4.185-3.332c-1.491.477-2.034 2.742-1.213 5.059s2.695 3.809 4.185 3.332z"/><path style="fill:var(--color4,#000)" d="M10.464 13.653c1.356-.434 3.151 1.035 3.921 3.208s.274 4.374-1.082 4.808c-1.356.434-3.151-1.035-3.921-3.208s-.273-4.375 1.082-4.808zm-.133-.375c-1.6.512-2.201 2.889-1.344 5.31s2.85 3.969 4.449 3.457c1.6-.512 2.201-2.889 1.344-5.31s-2.848-3.969-4.449-3.457z"/><path fill="#fff" style="fill:var(--color3,#fff)" d="M22.462 18.953c1.491-.477 2.034-2.742 1.213-5.059s-2.694-3.809-4.185-3.332-2.034 2.742-1.213 5.059c.821 2.317 2.695 3.809 4.185 3.332z"/><path style="fill:var(--color4,#000)" d="M19.557 10.75c1.356-.434 3.151 1.035 3.921 3.208s.274 4.374-1.082 4.808-3.151-1.035-3.921-3.208-.273-4.375 1.082-4.808zm-.133-.376c-1.6.512-2.201 2.889-1.344 5.31s2.85 3.969 4.449 3.457c1.6-.512 2.201-2.889 1.344-5.31s-2.848-3.969-4.449-3.457zm-6.809 9.354c.836-.267 1.147-1.522.693-2.801s-1.499-2.1-2.335-1.833c-.836.267-1.147 1.522-.693 2.801s1.499 2.1 2.335 1.833z"/><path style="fill:var(--color4,#000)" d="M10.996 15.156c.799-.256 1.806.548 2.247 1.791s.149 2.462-.65 2.718c-.799.256-1.806-.548-2.247-1.791s-.148-2.462.65-2.718zm-.044-.125c-.873.279-1.202 1.571-.737 2.885s1.55 2.154 2.423 1.874c.873-.279 1.202-1.571.737-2.885s-1.55-2.154-2.423-1.874zm10.757 1.793c.836-.267 1.147-1.522.693-2.801s-1.499-2.1-2.335-1.833c-.836.267-1.147 1.522-.693 2.801s1.499 2.1 2.335 1.833z"/><path style="fill:var(--color4,#000)" d="M20.089 12.253c.799-.256 1.806.548 2.247 1.791s.149 2.462-.65 2.718c-.799.256-1.806-.548-2.247-1.791s-.148-2.462.65-2.718zm-.044-.126c-.873.279-1.202 1.571-.737 2.885s1.55 2.154 2.423 1.874c.873-.279 1.202-1.571.737-2.885s-1.55-2.154-2.423-1.874z"/><path fill="#fff" style="fill:var(--color3,#fff)" d="M11.191 17.743c.503-.161.732-.796.512-1.419s-.807-.997-1.311-.836c-.503.161-.732.796-.512 1.419s.807.997 1.311.836zm9.005-3.154c.503-.161.732-.796.512-1.419s-.807-.997-1.311-.836c-.503.161-.732.796-.512 1.419s.807.997 1.311.836z"/><path style="fill:var(--color4,#000)" d="M7.961 11.966c.221-.762.614-1.546 1.418-1.878.749-.308 1.589-.115 2.309.176.493.2.866-.511.37-.711-.959-.389-2.059-.604-3.047-.181-1.04.445-1.577 1.433-1.866 2.432-.143.494.674.652.817.162zm9.592-3.85a13.19 13.19 0 0 0 6.191-.814c.493-.193.23-.949-.267-.753a12.303 12.303 0 0 1-5.756.789c-.531-.058-.702.72-.168.778z"/><path fill="none" stroke="#000" style="stroke:var(--color4,#000)" stroke-miterlimit="10" stroke-width=".585" d="M20.568 26.874c-6.805 2.173-13.432.795-14.802-3.078m24.644-7.87c1.37 3.873-3.037 8.774-9.842 10.947M4.427 24.572l2.589-1.803m22.273-6.694 2.197-.423"/></symbol><symbol id="icon-pink-floyd" viewBox="0 0 34 32"><path fill="#fff" style="fill:var(--color3,#fff)" d="M12.317 16.245c1.17.781 3.208-.06 4.552-1.878s1.485-3.925.315-4.706c-1.17-.781-3.208.06-4.552 1.878s-1.485 3.925-.315 4.706z"/><path style="fill:var(--color4,#000)" d="M17.075 9.808c1.064.71.899 2.75-.361 4.455s-3.223 2.545-4.288 1.834c-1.064-.711-.899-2.75.361-4.455s3.224-2.544 4.288-1.834zm.217-.295c-1.256-.838-3.412.023-4.816 1.922s-1.524 4.119-.269 4.957c1.256.838 3.412-.023 4.816-1.922s1.525-4.118.269-4.957z"/><path fill="#fff" style="fill:var(--color3,#fff)" d="M19.453 21.004c1.17.781 3.208-.06 4.552-1.878s1.485-3.925.315-4.706c-1.17-.781-3.208.06-4.552 1.878s-1.485 3.925-.315 4.706z"/><path style="fill:var(--color4,#000)" d="M24.211 14.568c1.064.71.899 2.75-.361 4.455s-3.223 2.545-4.288 1.834c-1.065-.71-.899-2.75.361-4.455s3.224-2.544 4.288-1.834zm.218-.295c-1.256-.838-3.412.023-4.816 1.922s-1.524 4.119-.269 4.957 3.412-.022 4.816-1.922 1.525-4.118.269-4.957zm-9.738-.406c.656.438 1.79-.021 2.532-1.025s.812-2.173.155-2.611c-.656-.438-1.79.021-2.532 1.025s-.812 2.173-.155 2.611z"/><path style="fill:var(--color4,#000)" d="M17.343 10.28c.627.419.551 1.552-.171 2.528s-1.817 1.429-2.444 1.01-.551-1.552.171-2.528c.721-.976 1.818-1.428 2.444-1.01zm.072-.098c-.685-.457-1.858.009-2.62 1.04s-.825 2.238-.14 2.695c.685.457 1.858-.009 2.62-1.04s.825-2.238.14-2.695zm4.516 8.514c.656.438 1.79-.021 2.532-1.025s.812-2.173.155-2.611c-.656-.438-1.79.021-2.532 1.025s-.812 2.173-.155 2.611z"/><path style="fill:var(--color4,#000)" d="M24.582 15.109c.627.419.551 1.552-.171 2.528s-1.817 1.429-2.444 1.01c-.627-.419-.551-1.552.171-2.528s1.818-1.428 2.444-1.01zm.073-.098c-.685-.457-1.858.009-2.62 1.039s-.825 2.238-.14 2.695c.685.457 1.858-.009 2.62-1.04s.825-2.238.14-2.695z"/><path fill="#fff" style="fill:var(--color3,#fff)" d="M14.339 13.412c.307.205.784.063 1.065-.317s.259-.854-.048-1.059c-.307-.205-.784-.063-1.064.317s-.26.854.048 1.059zm7.271 4.996c.307.205.784.063 1.064-.317s.26-.854-.047-1.059c-.307-.205-.784-.063-1.065.317s-.259.854.048 1.059z"/><path style="fill:var(--color4,#000)" d="M16.142 6.868c1.447.049 2.734.706 3.587 1.816.288.375.873-.086.587-.459-.964-1.256-2.473-2.019-4.109-2.075-.487-.016-.555.703-.065.718zm8.411 4.877c1.364.467 2.371 1.472 2.828 2.773.155.44.843.135.69-.301-.519-1.478-1.723-2.627-3.262-3.153-.459-.156-.717.522-.256.68z"/><path fill="none" stroke="#000" style="stroke:var(--color4,#000)" stroke-miterlimit="10" stroke-width=".434" d="M12.429 22.993c-5.341-3.562-7.85-8.913-5.605-11.953m19.34 12.899c-2.245 3.04-8.394 2.616-13.735-.946M5.505 10.527l2.783.83M25.445 23.24l1.51 1.3"/><path style="fill:var(--color4,#000);stroke:var(--color4,#000)" stroke="#000" stroke-miterlimit="10" stroke-width=".434" d="M12.595 23.385c.463-.352.343-1.225-.267-1.95s-1.481-1.026-1.944-.674c-.463.352-.343 1.225.267 1.95s1.481 1.027 1.944.674z"/><path style="fill:var(--color4,#000);stroke:var(--color4,#000)" stroke="#000" stroke-miterlimit="10" stroke-width=".434" d="M12.091 23.868c.942.629 1.788 1.028 1.888.892s-.583-.755-1.525-1.384c-.942-.629-1.788-1.028-1.888-.892s.583.755 1.525 1.384z"/><path style="fill:var(--color4,#000);stroke:var(--color4,#000)" stroke="#000" stroke-miterlimit="10" stroke-width=".434" d="M13.63 24.725c.889.384 1.809.279 2.055-.234s-.277-1.24-1.166-1.624c-.889-.384-1.809-.279-2.055.234s.277 1.24 1.166 1.624z"/></symbol><symbol id="icon-telegram" viewBox="0 0 32 32"><path fill="#f8d24e" style="fill:var(--color1,#f8d24e)" d="M32 16c0 8.837-7.163 16-16 16S0 24.837 0 16 7.163 0 16 0s16 7.163 16 16z"/><path fill="#84a178" style="fill:var(--color2,#84a178)" d="m12.869 18.375-.318 4.169c.454 0 .651-.182.887-.401l2.13-1.9 4.415 3.017c.81.421 1.38.199 1.598-.695l2.898-12.672.001-.001c.257-1.117-.433-1.554-1.222-1.28L6.226 14.698c-1.162.421-1.145 1.026-.198 1.3l4.354 1.264 10.115-5.907c.476-.294.909-.131.553.163l-8.182 6.857z"/></symbol><symbol id="icon-weight" viewBox="0 0 32 32"><path d="M14.177.547c-3.974.589-7.247 2.796-8.451 5.685-.384.913-.488 1.473-.488 2.573.007.812.037 1.114.162 1.552.259.863.443 1.301.827 1.919l.355.575-.399.489c-3.154 3.924-3.502 9.444-.872 13.793.982 1.632 2.585 3.234 4.152 4.169l.465.273 12.743-.108.303-.165c1.056-.597 2.549-1.926 3.383-3.004a12.61 12.61 0 0 0 2.423-5.621c.118-.74.118-2.932-.007-3.63-.377-2.149-1.182-3.989-2.453-5.621-.244-.309-.436-.568-.436-.589 0-.014.133-.237.288-.489a7.762 7.762 0 0 0 .864-1.962c.199-.719.199-2.516 0-3.234-.709-2.552-2.837-4.679-5.843-5.851C20.351.97 18.91.618 17.98.503c-.864-.101-2.999-.079-3.804.043zm4.499 1.171c3.945.769 6.833 3.184 7.365 6.16.118.668.044 1.804-.155 2.437-.199.618-.569 1.344-1.005 1.962-.177.252-.325.539-.325.633s.155.338.377.582c1.847 2.048 2.822 4.614 2.822 7.389-.007 3.155-1.219 5.922-3.553 8.093-.399.374-.968.841-1.271 1.042l-.554.374-12.211.05-.473-.302c-1.714-1.114-3.258-2.954-4.115-4.909-1.079-2.472-1.189-5.34-.31-7.913.465-1.337 1.086-2.429 2.031-3.579.384-.46.561-.733.561-.863 0-.108-.192-.46-.443-.827-.886-1.287-1.248-2.717-1.034-4.068.222-1.366.842-2.487 1.987-3.601 1.492-1.445 3.575-2.401 6.02-2.76 1.012-.151 3.25-.093 4.285.101z"/><path d="M14.51 2.983c-3.029.496-5.4 2.178-6.176 4.384-.177.496-.207.69-.207 1.402s.03.906.207 1.402c.111.316.318.755.458.978.384.618.554.64 1.315.18a11.972 11.972 0 0 1 3.804-1.488c.916-.187 2.674-.259 3.671-.144 1.559.18 3.25.74 4.602 1.538.384.223.776.41.872.41.561 0 1.278-1.617 1.278-2.875 0-2.796-2.674-5.189-6.464-5.786-.805-.129-2.585-.129-3.361 0zm3.656 1.15c1.271.273 2.438.791 3.317 1.473 1.182.913 1.817 2.185 1.714 3.414-.037.489-.222 1.15-.332 1.222-.029.014-.443-.158-.916-.388a14.721 14.721 0 0 0-3.228-1.1c-.687-.144-.975-.165-2.512-.158-1.514 0-1.832.022-2.489.158a13.254 13.254 0 0 0-3.117 1.064c-1.101.525-1.042.532-1.241-.115-.258-.841-.096-1.955.406-2.796.266-.446.997-1.186 1.529-1.553 1.012-.697 1.899-1.013 3.804-1.358.391-.072 2.563.029 3.066.137zm-1.204 9.272c-.207.259-.207.503.007.712.14.137.281.172.79.208.99.072 1.935.359 2.785.848.606.359 1.529 1.229 1.943 1.854.613.898 1.034 2.185 1.034 3.134 0 .331.029.431.185.575.236.237.547.237.776 0 .163-.165.17-.208.125-.913-.207-3.479-3.184-6.383-6.744-6.577l-.739-.043-.163.201z"/></symbol></defs></svg>