<?xml version="1.0" encoding="UTF-8" standalone="no"?>
<svg
   xmlns:dc="http://purl.org/dc/elements/1.1/"
   xmlns:cc="http://creativecommons.org/ns#"
   xmlns:rdf="http://www.w3.org/1999/02/22-rdf-syntax-ns#"
   xmlns:svg="http://www.w3.org/2000/svg"
   xmlns="http://www.w3.org/2000/svg"
   xmlns:sodipodi="http://sodipodi.sourceforge.net/DTD/sodipodi-0.dtd"
   xmlns:inkscape="http://www.inkscape.org/namespaces/inkscape"
   inkscape:export-ydpi="576"
   inkscape:export-xdpi="576"
   inkscape:export-filename="E:\Filedline\2 - Ice Cream.png"
   width="64pt"
   height="64pt"
   viewBox="0 0 22.577778 22.577778"
   version="1.1"
   id="svg831"
   inkscape:version="1.0 (4035a4fb49, 2020-05-01)"
   sodipodi:docname="EXPORT 64px.svg">
  <defs
     id="defs825">
    <pattern
       id="EMFhbasepattern"
       patternUnits="userSpaceOnUse"
       width="6"
       height="6"
       x="0"
       y="0" />
    <pattern
       id="EMFhbasepattern-9"
       patternUnits="userSpaceOnUse"
       width="6"
       height="6"
       x="0"
       y="0" />
    <pattern
       id="EMFhbasepattern-0"
       patternUnits="userSpaceOnUse"
       width="6"
       height="6"
       x="0"
       y="0" />
    <pattern
       id="EMFhbasepattern-7"
       patternUnits="userSpaceOnUse"
       width="6"
       height="6"
       x="0"
       y="0" />
    <pattern
       id="EMFhbasepattern-2"
       patternUnits="userSpaceOnUse"
       width="6"
       height="6"
       x="0"
       y="0" />
    <pattern
       id="EMFhbasepattern-98"
       patternUnits="userSpaceOnUse"
       width="6"
       height="6"
       x="0"
       y="0" />
    <pattern
       id="EMFhbasepattern-6"
       patternUnits="userSpaceOnUse"
       width="6"
       height="6"
       x="0"
       y="0" />
    <pattern
       id="EMFhbasepattern-01"
       patternUnits="userSpaceOnUse"
       width="6"
       height="6"
       x="0"
       y="0" />
    <pattern
       id="EMFhbasepattern-07"
       patternUnits="userSpaceOnUse"
       width="6"
       height="6"
       x="0"
       y="0" />
    <pattern
       id="EMFhbasepattern-8"
       patternUnits="userSpaceOnUse"
       width="6"
       height="6"
       x="0"
       y="0" />
    <pattern
       id="EMFhbasepattern-4"
       patternUnits="userSpaceOnUse"
       width="6"
       height="6"
       x="0"
       y="0" />
    <pattern
       id="EMFhbasepattern-40"
       patternUnits="userSpaceOnUse"
       width="6"
       height="6"
       x="0"
       y="0" />
    <pattern
       id="EMFhbasepattern-08"
       patternUnits="userSpaceOnUse"
       width="6"
       height="6"
       x="0"
       y="0" />
    <pattern
       id="EMFhbasepattern-04"
       patternUnits="userSpaceOnUse"
       width="6"
       height="6"
       x="0"
       y="0" />
    <pattern
       id="EMFhbasepattern-014"
       patternUnits="userSpaceOnUse"
       width="6"
       height="6"
       x="0"
       y="0" />
    <pattern
       id="EMFhbasepattern-27"
       patternUnits="userSpaceOnUse"
       width="6"
       height="6"
       x="0"
       y="0" />
    <pattern
       id="EMFhbasepattern-09"
       patternUnits="userSpaceOnUse"
       width="6"
       height="6"
       x="0"
       y="0" />
    <pattern
       id="EMFhbasepattern-5"
       patternUnits="userSpaceOnUse"
       width="6"
       height="6"
       x="0"
       y="0" />
    <pattern
       id="EMFhbasepattern-018"
       patternUnits="userSpaceOnUse"
       width="6"
       height="6"
       x="0"
       y="0" />
  </defs>
  <sodipodi:namedview
     id="base"
     pagecolor="#ffffff"
     bordercolor="#666666"
     borderopacity="1.0"
     inkscape:pageopacity="0.0"
     inkscape:pageshadow="2"
     inkscape:zoom="3.3909162"
     inkscape:cx="9.805947"
     inkscape:cy="23.142722"
     inkscape:document-units="pt"
     inkscape:current-layer="g1692"
     showgrid="false"
     units="pt"
     inkscape:window-width="1366"
     inkscape:window-height="715"
     inkscape:window-x="-8"
     inkscape:window-y="-8"
     inkscape:window-maximized="1"
     inkscape:pagecheckerboard="true"
     inkscape:showpageshadow="false"
     inkscape:object-paths="true"
     inkscape:snap-intersection-paths="true"
     inkscape:snap-smooth-nodes="true"
     inkscape:snap-midpoints="true"
     showguides="true"
     inkscape:snap-bbox="true"
     inkscape:bbox-nodes="true"
     inkscape:snap-nodes="false"
     inkscape:snap-global="true"
     inkscape:document-rotation="0">
    <inkscape:grid
       type="xygrid"
       id="grid1378" />
    <sodipodi:guide
       position="0.97013831,21.607643"
       orientation="78.000048,0"
       id="guide1380"
       inkscape:locked="false" />
    <sodipodi:guide
       position="0.97013831,0.97013129"
       orientation="0,78.000005"
       id="guide1382"
       inkscape:locked="false" />
    <sodipodi:guide
       position="21.607639,0.97013129"
       orientation="-78.000048,0"
       id="guide1384"
       inkscape:locked="false" />
    <sodipodi:guide
       position="21.607639,21.607643"
       orientation="0,-78.000005"
       id="guide1386"
       inkscape:locked="false" />
  </sodipodi:namedview>
  <metadata
     id="metadata828">
    <rdf:RDF>
      <cc:Work
         rdf:about="">
        <dc:format>image/svg+xml</dc:format>
        <dc:type
           rdf:resource="http://purl.org/dc/dcmitype/StillImage" />
        <dc:title></dc:title>
      </cc:Work>
    </rdf:RDF>
  </metadata>
  <g
     inkscape:label="Icon"
     inkscape:groupmode="layer"
     id="layer1"
     transform="translate(0,-274.42223)">
    <g
       transform="matrix(1.2578954,0,0,1.2578954,0.63862052,-77.233473)"
       style="display:inline"
       id="g1692">
      <g
         transform="matrix(0.98567352,0,0,0.98567352,29.661655,34.198478)"
         style="display:inline"
         id="g911">
        <g
           id="g1620">
          <path
             sodipodi:nodetypes="ccccccccc"
             id="path540"
             d="m -24.150391,261.0918 0.496094,4.47265 c 0.03233,0.29096 0.220441,0.52063 0.513672,0.5918 1.092088,0.26539 2.184827,0.26111 3.265625,0 0.293153,-0.0708 0.483277,-0.30072 0.515625,-0.5918 l 0.496094,-4.47265 c 0.02036,-0.17892 -0.140054,-0.32547 -0.316407,-0.28907 -1.450585,0.29982 -2.958203,0.39005 -3.90715,0.18696 -0.948946,-0.20309 -1.082775,-0.0618 -1.063553,0.10211 z"
             style="color:#000000;font-style:normal;font-variant:normal;font-weight:normal;font-stretch:normal;font-size:medium;line-height:normal;font-family:sans-serif;font-variant-ligatures:normal;font-variant-position:normal;font-variant-caps:normal;font-variant-numeric:normal;font-variant-alternates:normal;font-variant-east-asian:normal;font-feature-settings:normal;font-variation-settings:normal;text-indent:0;text-align:start;text-decoration:none;text-decoration-line:none;text-decoration-style:solid;text-decoration-color:#000000;letter-spacing:normal;word-spacing:normal;text-transform:none;writing-mode:lr-tb;direction:ltr;text-orientation:mixed;dominant-baseline:auto;baseline-shift:baseline;text-anchor:start;white-space:normal;shape-padding:0;shape-margin:0;inline-size:0;clip-rule:nonzero;display:inline;overflow:visible;visibility:visible;isolation:auto;mix-blend-mode:normal;color-interpolation:sRGB;color-interpolation-filters:linearRGB;solid-color:#000000;solid-opacity:1;vector-effect:none;fill:#ffa185;fill-opacity:1;fill-rule:evenodd;stroke:none;stroke-width:0.529167;stroke-linecap:round;stroke-linejoin:round;stroke-miterlimit:4;stroke-dasharray:none;stroke-dashoffset:0;stroke-opacity:1;color-rendering:auto;image-rendering:auto;shape-rendering:auto;text-rendering:auto;enable-background:accumulate;stop-color:#000000" />
          <path
             sodipodi:nodetypes="cccccccccc"
             d="m -24.150464,261.09159 0.09198,0.83044 c 1.56923,0.31208 2.985632,0.22094 4.349606,-0.061 0.176207,-0.0363 0.336444,0.11011 0.31626,0.28887 l -0.442867,3.99356 c 0.270102,-0.0815 0.445107,-0.30133 0.47594,-0.57878 l 0.496093,-4.47311 c 0.02018,-0.17876 -0.140052,-0.32512 -0.316259,-0.28887 -1.450585,0.29982 -2.958062,0.39012 -3.913735,0.19359 -0.955674,-0.19653 -1.075013,-0.0597 -1.057018,0.0953 z"
             style="color:#000000;font-style:normal;font-variant:normal;font-weight:normal;font-stretch:normal;font-size:medium;line-height:normal;font-family:sans-serif;font-variant-ligatures:normal;font-variant-position:normal;font-variant-caps:normal;font-variant-numeric:normal;font-variant-alternates:normal;font-variant-east-asian:normal;font-feature-settings:normal;font-variation-settings:normal;text-indent:0;text-align:start;text-decoration:none;text-decoration-line:none;text-decoration-style:solid;text-decoration-color:#000000;letter-spacing:normal;word-spacing:normal;text-transform:none;writing-mode:lr-tb;direction:ltr;text-orientation:mixed;dominant-baseline:auto;baseline-shift:baseline;text-anchor:start;white-space:normal;shape-padding:0;shape-margin:0;inline-size:0;clip-rule:nonzero;display:inline;overflow:visible;visibility:visible;isolation:auto;mix-blend-mode:normal;color-interpolation:sRGB;color-interpolation-filters:linearRGB;solid-color:#000000;solid-opacity:1;vector-effect:none;fill:#e07a5f;fill-opacity:1;fill-rule:evenodd;stroke:none;stroke-width:0.529167;stroke-linecap:round;stroke-linejoin:round;stroke-miterlimit:4;stroke-dasharray:none;stroke-dashoffset:0;stroke-opacity:1;color-rendering:auto;image-rendering:auto;shape-rendering:auto;text-rendering:auto;enable-background:accumulate;stop-color:#000000"
             id="path1660" />
          <path
             sodipodi:nodetypes="cscccccscccccc"
             id="path554"
             d="m -24.416079,259.90386 c 0,0.0443 -0.0724,0.20051 -0.03125,0.52973 0.04115,0.32923 -0.101572,0.56819 0.37897,0.72838 0,-0.1928 0.02539,-0.14453 0.02539,0.008 0.887475,0.20376 1.729803,0.29648 2.539063,0.28459 0.807008,0.0113 1.648427,-0.0664 2.533203,-0.26953 0.0086,-0.002 0.01707,-0.005 0.02539,-0.008 0.480541,-0.16019 0.699084,-0.41421 0.740234,-0.74344 0.04115,-0.32922 -0.03125,-0.65106 -0.03125,-0.69531 1.75e-4,-0.18481 -0.184349,-0.31287 -0.357422,-0.24805 -1.015041,0.38313 -1.978805,0.53259 -2.914061,0.53261 -0.935257,1e-5 -1.535804,0.0161 -2.159919,-0.18577 -0.624116,-0.20188 -0.747901,-0.0825 -0.748348,0.0668 z"
             style="color:#000000;font-style:normal;font-variant:normal;font-weight:normal;font-stretch:normal;font-size:medium;line-height:normal;font-family:sans-serif;font-variant-ligatures:normal;font-variant-position:normal;font-variant-caps:normal;font-variant-numeric:normal;font-variant-alternates:normal;font-variant-east-asian:normal;font-feature-settings:normal;font-variation-settings:normal;text-indent:0;text-align:start;text-decoration:none;text-decoration-line:none;text-decoration-style:solid;text-decoration-color:#000000;letter-spacing:normal;word-spacing:normal;text-transform:none;writing-mode:lr-tb;direction:ltr;text-orientation:mixed;dominant-baseline:auto;baseline-shift:baseline;text-anchor:start;white-space:normal;shape-padding:0;shape-margin:0;inline-size:0;clip-rule:nonzero;display:inline;overflow:visible;visibility:visible;isolation:auto;mix-blend-mode:normal;color-interpolation:sRGB;color-interpolation-filters:linearRGB;solid-color:#000000;solid-opacity:1;vector-effect:none;fill:#ffccbc;fill-opacity:1;fill-rule:nonzero;stroke:none;stroke-width:0.529167;stroke-linecap:round;stroke-linejoin:round;stroke-miterlimit:4;stroke-dasharray:none;stroke-dashoffset:0;stroke-opacity:1;color-rendering:auto;image-rendering:auto;shape-rendering:auto;text-rendering:auto;enable-background:accumulate;stop-color:#000000" />
          <path
             sodipodi:nodetypes="cccccccccc"
             d="m -18.593703,259.49014 c -1.015041,0.38313 -1.978779,0.53276 -2.914034,0.53278 -0.935257,10e-6 -1.693713,0.008 -2.708755,-0.37473 l -0.357594,0.09 c 0,0.0443 0.172139,0.61116 0.213289,0.94038 1.122856,0.48972 1.848907,0.39647 2.853069,0.4027 1.296315,-0.032 2.213619,-0.1974 3.302636,-0.64751 0.04115,-0.32922 -0.03101,-0.65132 -0.03101,-0.69557 -0.02564,-0.27637 -0.254041,-0.28123 -0.357601,-0.24804 z"
             style="color:#000000;font-style:normal;font-variant:normal;font-weight:normal;font-stretch:normal;font-size:medium;line-height:normal;font-family:sans-serif;font-variant-ligatures:normal;font-variant-position:normal;font-variant-caps:normal;font-variant-numeric:normal;font-variant-alternates:normal;font-variant-east-asian:normal;font-feature-settings:normal;font-variation-settings:normal;text-indent:0;text-align:start;text-decoration:none;text-decoration-line:none;text-decoration-style:solid;text-decoration-color:#000000;letter-spacing:normal;word-spacing:normal;text-transform:none;writing-mode:lr-tb;direction:ltr;text-orientation:mixed;dominant-baseline:auto;baseline-shift:baseline;text-anchor:start;white-space:normal;shape-padding:0;shape-margin:0;inline-size:0;clip-rule:nonzero;display:inline;overflow:visible;visibility:visible;isolation:auto;mix-blend-mode:normal;color-interpolation:sRGB;color-interpolation-filters:linearRGB;solid-color:#000000;solid-opacity:1;vector-effect:none;fill:#e89c87;fill-opacity:1;fill-rule:nonzero;stroke:none;stroke-width:0.529167;stroke-linecap:round;stroke-linejoin:round;stroke-miterlimit:4;stroke-dasharray:none;stroke-dashoffset:0;stroke-opacity:1;color-rendering:auto;image-rendering:auto;shape-rendering:auto;text-rendering:auto;enable-background:accumulate;stop-color:#000000"
             id="path1654" />
          <path
             sodipodi:nodetypes="cccccccccsccscsscccc"
             d="m -24.384042,252.91586 c -0.872104,0.19862 -1.25933,1.48262 -1.254704,2.18385 0.04956,0.41319 0.09561,0.78703 0.371037,1.01699 1.217106,0.12696 2.634467,0.17273 3.743509,0.14901 0.301374,-0.002 0.545635,0.23639 0.545635,0.53777 v 0.81959 c -2.6e-5,0.55352 0.548272,0.9341 1.058849,0.74621 v 0.83974 c -7e-6,0.43524 0.359553,0.79476 0.794784,0.79478 0.435245,0 0.792716,-0.35953 0.792716,-0.79478 v -0.31316 c 0.08312,0.03 0.171163,0.0496 0.264067,0.0496 0.435244,0 0.841167,-0.36254 0.794783,-0.7953 l -0.210738,-1.96616 c 0.0095,-1.21456 -0.667441,-1.73932 -1.230416,-2.0646 -0.562975,-0.32528 -1.004639,-0.3519 -1.644963,-0.3204 -0.640324,0.0315 -1.281328,0.12163 -1.839681,0.0935 -0.558352,-0.028 -1.009984,-0.15921 -1.361157,-0.55863 -0.274307,-0.25933 -0.475737,-0.38667 -0.823721,-0.41806 z"
             style="color:#000000;font-style:normal;font-variant:normal;font-weight:normal;font-stretch:normal;font-size:medium;line-height:normal;font-family:sans-serif;font-variant-ligatures:normal;font-variant-position:normal;font-variant-caps:normal;font-variant-numeric:normal;font-variant-alternates:normal;font-variant-east-asian:normal;font-feature-settings:normal;font-variation-settings:normal;text-indent:0;text-align:start;text-decoration:none;text-decoration-line:none;text-decoration-style:solid;text-decoration-color:#000000;letter-spacing:normal;word-spacing:normal;text-transform:none;writing-mode:lr-tb;direction:ltr;text-orientation:mixed;dominant-baseline:auto;baseline-shift:baseline;text-anchor:start;white-space:normal;shape-padding:0;shape-margin:0;inline-size:0;clip-rule:nonzero;display:inline;overflow:visible;visibility:visible;isolation:auto;mix-blend-mode:normal;color-interpolation:sRGB;color-interpolation-filters:linearRGB;solid-color:#000000;solid-opacity:1;vector-effect:none;fill:#ed2175;fill-opacity:1;fill-rule:nonzero;stroke:none;stroke-width:0.529167;stroke-linecap:round;stroke-linejoin:round;stroke-miterlimit:4;stroke-dasharray:none;stroke-dashoffset:0;stroke-opacity:1;color-rendering:auto;image-rendering:auto;shape-rendering:auto;text-rendering:auto;enable-background:accumulate;stop-color:#000000"
             id="path621" />
          <path
             sodipodi:nodetypes="ccccscccccc"
             d="m -19.124931,260.00379 c -0.435231,-2e-5 -0.794791,-0.35954 -0.794783,-0.79478 v -0.83974 c -0.08288,0.0295 -0.171633,0.0465 -0.264067,0.0465 -0.435231,-2e-5 -0.794791,-0.35747 -0.794784,-0.79271 v -0.27957 c -1.321623,0.0456 -2.624474,-0.0164 -3.368007,-0.134 -0.743534,-0.11759 -0.863714,10e-4 -0.864293,0.14796 -0.004,1.05866 0.182702,1.80445 0.752016,2.43055 0.992049,0.42785 1.996695,0.72509 2.951122,0.74134 0.973252,0.0121 2.057932,-0.12318 2.382796,-0.52555 z"
             style="color:#000000;font-style:normal;font-variant:normal;font-weight:normal;font-stretch:normal;font-size:medium;line-height:normal;font-family:sans-serif;font-variant-ligatures:normal;font-variant-position:normal;font-variant-caps:normal;font-variant-numeric:normal;font-variant-alternates:normal;font-variant-east-asian:normal;font-feature-settings:normal;font-variation-settings:normal;text-indent:0;text-align:start;text-decoration:none;text-decoration-line:none;text-decoration-style:solid;text-decoration-color:#000000;letter-spacing:normal;word-spacing:normal;text-transform:none;writing-mode:lr-tb;direction:ltr;text-orientation:mixed;dominant-baseline:auto;baseline-shift:baseline;text-anchor:start;white-space:normal;shape-padding:0;shape-margin:0;inline-size:0;clip-rule:nonzero;display:inline;overflow:visible;visibility:visible;isolation:auto;mix-blend-mode:normal;color-interpolation:sRGB;color-interpolation-filters:linearRGB;solid-color:#000000;solid-opacity:1;vector-effect:none;fill:#ffa185;fill-opacity:1;fill-rule:nonzero;stroke:none;stroke-width:0.529167;stroke-linecap:round;stroke-linejoin:round;stroke-miterlimit:4;stroke-dasharray:none;stroke-dashoffset:0;stroke-opacity:1;color-rendering:auto;image-rendering:auto;shape-rendering:auto;text-rendering:auto;enable-background:accumulate;stop-color:#000000"
             id="path569" />
          <path
             sodipodi:nodetypes="sccccccccsscccs"
             transform="matrix(0.26458334,0,0,0.26458334,0,280.06666)"
             d="m -86.544922,-111.76472 c -1.010387,1.07914 -1.498078,1.98313 -1.664062,3.35456 0.06199,-0.003 0.123078,-0.0123 0.185546,-0.0117 v 0.002 c 1.058472,0.01 2.190782,0.49458 3.337891,1.44922 0.01272,0.0127 0.02509,0.0257 0.03711,0.0391 0.829985,0.76388 1.819882,1.00499 3.064454,1.08398 1.244575,0.0774 2.680261,-0.0452 4.15625,0.0742 0.776343,0.0627 1.57887,0.21122 2.351562,0.51367 0.228321,-0.98331 -0.141509,-1.78718 -0.300585,-2.48632 -0.208781,-0.91756 -0.763603,-1.56371 -1.253906,-1.98633 -0.490303,-0.42263 -0.910113,-0.70117 -1.136719,-0.9668 -0.728089,-0.8864 0.528814,-1.71292 -0.51777,-3.16797 -0.463926,-0.59576 -1.299529,-0.51981 -3.136473,-0.33632 -1.836943,0.18349 -3.844181,1.07257 -5.123298,2.43871 z"
             style="color:#000000;font-style:normal;font-variant:normal;font-weight:normal;font-stretch:normal;font-size:medium;line-height:normal;font-family:sans-serif;font-variant-ligatures:normal;font-variant-position:normal;font-variant-caps:normal;font-variant-numeric:normal;font-variant-alternates:normal;font-variant-east-asian:normal;font-feature-settings:normal;font-variation-settings:normal;text-indent:0;text-align:start;text-decoration:none;text-decoration-line:none;text-decoration-style:solid;text-decoration-color:#000000;letter-spacing:normal;word-spacing:normal;text-transform:none;writing-mode:lr-tb;direction:ltr;text-orientation:mixed;dominant-baseline:auto;baseline-shift:baseline;text-anchor:start;white-space:normal;shape-padding:0;shape-margin:0;inline-size:0;clip-rule:nonzero;display:inline;overflow:visible;visibility:visible;isolation:auto;mix-blend-mode:normal;color-interpolation:sRGB;color-interpolation-filters:linearRGB;solid-color:#000000;solid-opacity:1;vector-effect:none;fill:#ed2175;fill-opacity:1;fill-rule:nonzero;stroke:none;stroke-width:1.99999;stroke-linecap:round;stroke-linejoin:round;stroke-miterlimit:4;stroke-dasharray:none;stroke-dashoffset:0;stroke-opacity:1;color-rendering:auto;image-rendering:auto;shape-rendering:auto;text-rendering:auto;enable-background:accumulate;stop-color:#000000"
             id="path1581" />
          <path
             sodipodi:nodetypes="ccccccccccccccc"
             d="m -23.166545,250.77646 v 5.1e-4 c -0.09328,0.19141 -0.146942,0.39689 -0.171566,0.60617 0.332673,0.0496 0.696055,0.19258 0.93173,0.38095 0.0034,0.003 0.0066,0.007 0.0098,0.0103 0.2196,0.20211 0.48151,0.2659 0.810803,0.2868 0.329294,0.0205 0.709153,-0.012 1.099675,0.0196 0.205345,0.0166 0.33501,0.0554 0.539394,0.13539 0.0578,-0.25027 0.06604,-0.45599 0.02894,-0.63614 -0.209652,-0.0624 -0.33271,-0.096 -0.519758,-0.1111 -0.45529,-0.0368 -0.849512,-0.004 -1.109492,-0.0196 h -0.0021 c -0.214036,0.018 -0.325706,-0.0817 -0.464639,-0.15692 -0.344435,-0.28664 -0.739423,-0.48047 -1.152901,-0.51573 z"
             style="color:#000000;font-style:normal;font-variant:normal;font-weight:normal;font-stretch:normal;font-size:medium;line-height:normal;font-family:sans-serif;font-variant-ligatures:normal;font-variant-position:normal;font-variant-caps:normal;font-variant-numeric:normal;font-variant-alternates:normal;font-variant-east-asian:normal;font-feature-settings:normal;font-variation-settings:normal;text-indent:0;text-align:start;text-decoration:none;text-decoration-line:none;text-decoration-style:solid;text-decoration-color:#000000;letter-spacing:normal;word-spacing:normal;text-transform:none;writing-mode:lr-tb;direction:ltr;text-orientation:mixed;dominant-baseline:auto;baseline-shift:baseline;text-anchor:start;white-space:normal;shape-padding:0;shape-margin:0;inline-size:0;clip-rule:nonzero;display:inline;overflow:visible;visibility:visible;isolation:auto;mix-blend-mode:normal;color-interpolation:sRGB;color-interpolation-filters:linearRGB;solid-color:#000000;solid-opacity:1;vector-effect:none;fill:#d9216d;fill-opacity:1;fill-rule:nonzero;stroke:none;stroke-width:0.529167;stroke-linecap:round;stroke-linejoin:round;stroke-miterlimit:4;stroke-dasharray:none;stroke-dashoffset:0;stroke-opacity:1;color-rendering:auto;image-rendering:auto;shape-rendering:auto;text-rendering:auto;enable-background:accumulate;stop-color:#000000"
             id="path1593" />
          <path
             sodipodi:nodetypes="ccssccccccccccccc"
             d="m -23.289535,251.50046 c -0.04001,-3.8e-4 -0.03981,0.14391 -0.118856,0.007 -0.31331,0.0381 -0.555801,0.23555 -0.716752,0.46457 -0.160951,0.22903 -0.256011,0.37732 -0.302824,0.63354 -0.02114,0.11569 -0.03245,0.22708 -0.03307,0.33486 0.02573,-0.008 0.05036,-0.0182 0.077,-0.0243 0.347984,0.0314 0.549416,0.15874 0.823723,0.41806 0.351173,0.39942 0.802805,0.53063 1.361157,0.55863 0.558353,0.0281 1.199357,-0.062 1.839681,-0.0935 0.581638,-0.0286 1.172594,-0.007 1.698088,0.24081 -0.136773,-0.70775 -0.36562,-1.18394 -0.680579,-1.49086 -0.337135,-0.32854 -0.753594,-0.43716 -1.144116,-0.46871 -0.390522,-0.0316 -0.770381,8.7e-4 -1.099675,-0.0196 -0.329293,-0.0209 -0.591203,-0.0847 -0.810803,-0.28681 -0.0032,-0.004 -0.0064,-0.007 -0.0098,-0.0103 -0.303506,-0.25258 -0.603096,-0.26039 -0.88315,-0.26302 z"
             style="color:#000000;font-style:normal;font-variant:normal;font-weight:normal;font-stretch:normal;font-size:medium;line-height:normal;font-family:sans-serif;font-variant-ligatures:normal;font-variant-position:normal;font-variant-caps:normal;font-variant-numeric:normal;font-variant-alternates:normal;font-variant-east-asian:normal;font-feature-settings:normal;font-variation-settings:normal;text-indent:0;text-align:start;text-decoration:none;text-decoration-line:none;text-decoration-style:solid;text-decoration-color:#000000;letter-spacing:normal;word-spacing:normal;text-transform:none;writing-mode:lr-tb;direction:ltr;text-orientation:mixed;dominant-baseline:auto;baseline-shift:baseline;text-anchor:start;white-space:normal;shape-padding:0;shape-margin:0;inline-size:0;clip-rule:nonzero;display:inline;overflow:visible;visibility:visible;isolation:auto;mix-blend-mode:normal;color-interpolation:sRGB;color-interpolation-filters:linearRGB;solid-color:#000000;solid-opacity:1;vector-effect:none;fill:#ed2175;fill-opacity:1;fill-rule:nonzero;stroke:none;stroke-width:0.529167;stroke-linecap:round;stroke-linejoin:round;stroke-miterlimit:4;stroke-dasharray:none;stroke-dashoffset:0;stroke-opacity:1;color-rendering:auto;image-rendering:auto;shape-rendering:auto;text-rendering:auto;enable-background:accumulate;stop-color:#000000"
             id="path734" />
          <path
             sodipodi:nodetypes="cccsscscccccsccc"
             d="m -25.210866,257.35745 c -0.0013,0.34952 0.130701,0.42359 0.148201,0.73053 1.343237,0.21724 2.882955,0.35138 4.08409,0.31372 v 0.27957 c -7e-6,0.43524 0.359553,0.7927 0.794784,0.79272 0.09243,0 0.181186,-0.017 0.264066,-0.0465 v 0.83974 c 0,0.0396 0.0062,0.0777 0.01189,0.11576 0.354699,-0.0838 0.642275,-0.20514 0.782898,-0.37931 -0.435231,-2e-5 -0.794792,-0.35954 -0.794784,-0.79478 v -0.83974 c -0.08288,0.0295 -0.171632,0.0465 -0.264066,0.0465 -0.435231,-2e-5 -0.794791,-0.35747 -0.794784,-0.79271 v -0.27957 c -1.321622,0.0456 -2.624475,-0.0164 -3.368004,-0.13394 -0.74353,-0.11754 -0.863711,0.001 -0.864291,0.14801 z"
             style="color:#000000;font-style:normal;font-variant:normal;font-weight:normal;font-stretch:normal;font-size:medium;line-height:normal;font-family:sans-serif;font-variant-ligatures:normal;font-variant-position:normal;font-variant-caps:normal;font-variant-numeric:normal;font-variant-alternates:normal;font-variant-east-asian:normal;font-feature-settings:normal;font-variation-settings:normal;text-indent:0;text-align:start;text-decoration:none;text-decoration-line:none;text-decoration-style:solid;text-decoration-color:#000000;letter-spacing:normal;word-spacing:normal;text-transform:none;writing-mode:lr-tb;direction:ltr;text-orientation:mixed;dominant-baseline:auto;baseline-shift:baseline;text-anchor:start;white-space:normal;shape-padding:0;shape-margin:0;inline-size:0;clip-rule:nonzero;display:inline;overflow:visible;visibility:visible;isolation:auto;mix-blend-mode:normal;color-interpolation:sRGB;color-interpolation-filters:linearRGB;solid-color:#000000;solid-opacity:1;vector-effect:none;fill:#e07a5f;fill-opacity:1;fill-rule:nonzero;stroke:none;stroke-width:0.529167;stroke-linecap:round;stroke-linejoin:round;stroke-miterlimit:4;stroke-dasharray:none;stroke-dashoffset:0;stroke-opacity:1;color-rendering:auto;image-rendering:auto;shape-rendering:auto;text-rendering:auto;enable-background:accumulate;stop-color:#000000"
             id="path1630" />
          <path
             sodipodi:nodetypes="ccccsccc"
             d="m -20.933605,257.87253 c -0.08923,-0.5119 -0.04496,-1.07831 -0.04496,-1.61489 -1.289243,0.0306 -2.604138,-0.0209 -3.919657,-0.1912 -0.456917,0.007 -0.589032,0.45253 -0.587755,0.79489 0.0054,0.15671 -0.120465,0.21971 -0.09259,0.32817 0.02788,0.10847 -0.0195,0.0704 0.08038,0.13703 0.199766,0.13328 0.358973,0.12271 1.085798,0.22864 0.768167,0.14313 2.117855,0.36572 3.478784,0.31736 z"
             style="color:#000000;font-style:normal;font-variant:normal;font-weight:normal;font-stretch:normal;font-size:medium;line-height:normal;font-family:sans-serif;font-variant-ligatures:normal;font-variant-position:normal;font-variant-caps:normal;font-variant-numeric:normal;font-variant-alternates:normal;font-variant-east-asian:normal;font-feature-settings:normal;font-variation-settings:normal;text-indent:0;text-align:start;text-decoration:none;text-decoration-line:none;text-decoration-style:solid;text-decoration-color:#000000;letter-spacing:normal;word-spacing:normal;text-transform:none;writing-mode:lr-tb;direction:ltr;text-orientation:mixed;dominant-baseline:auto;baseline-shift:baseline;text-anchor:start;white-space:normal;shape-padding:0;shape-margin:0;inline-size:0;clip-rule:nonzero;display:inline;overflow:visible;visibility:visible;isolation:auto;mix-blend-mode:normal;color-interpolation:sRGB;color-interpolation-filters:linearRGB;solid-color:#000000;solid-opacity:1;vector-effect:none;fill:#ffccbc;fill-opacity:1;fill-rule:nonzero;stroke:none;stroke-width:0.529167;stroke-linecap:round;stroke-linejoin:round;stroke-miterlimit:4;stroke-dasharray:none;stroke-dashoffset:0;stroke-opacity:1;color-rendering:auto;image-rendering:auto;shape-rendering:auto;text-rendering:auto;enable-background:accumulate;stop-color:#000000"
             id="path584" />
          <path
             sodipodi:nodetypes="cccccccccccc"
             d="m -24.356653,252.33089 c -0.07356,0.20056 -0.08916,0.41276 -0.10438,0.60926 0.362009,-0.0239 0.701187,0.20705 0.900723,0.39376 0.351173,0.39942 0.802805,0.53063 1.361157,0.55863 0.558353,0.0281 1.199357,-0.062 1.839681,-0.0935 0.580255,-0.0285 1.169913,-0.007 1.69447,0.23875 -0.05129,-0.26225 -0.112681,-0.49886 -0.189136,-0.70022 -0.525439,-0.15005 -1.05684,-0.15425 -1.53479,-0.13074 -0.676462,0.0333 -1.308816,0.11783 -1.78077,0.0941 -1.007401,-0.027 -1.294273,-0.96566 -2.186946,-0.96996 l -5e-6,-4e-5 z"
             style="color:#000000;font-style:normal;font-variant:normal;font-weight:normal;font-stretch:normal;font-size:medium;line-height:normal;font-family:sans-serif;font-variant-ligatures:normal;font-variant-position:normal;font-variant-caps:normal;font-variant-numeric:normal;font-variant-alternates:normal;font-variant-east-asian:normal;font-feature-settings:normal;font-variation-settings:normal;text-indent:0;text-align:start;text-decoration:none;text-decoration-line:none;text-decoration-style:solid;text-decoration-color:#000000;letter-spacing:normal;word-spacing:normal;text-transform:none;writing-mode:lr-tb;direction:ltr;text-orientation:mixed;dominant-baseline:auto;baseline-shift:baseline;text-anchor:start;white-space:normal;shape-padding:0;shape-margin:0;inline-size:0;clip-rule:nonzero;display:inline;overflow:visible;visibility:visible;isolation:auto;mix-blend-mode:normal;color-interpolation:sRGB;color-interpolation-filters:linearRGB;solid-color:#000000;solid-opacity:1;vector-effect:none;fill:#d9216d;fill-opacity:1;fill-rule:nonzero;stroke:none;stroke-width:2;stroke-linecap:round;stroke-linejoin:round;stroke-miterlimit:4;stroke-dasharray:none;stroke-dashoffset:0;stroke-opacity:1;color-rendering:auto;image-rendering:auto;shape-rendering:auto;text-rendering:auto;enable-background:accumulate;stop-color:#000000"
             id="path710" />
          <path
             d="m -21.277255,249.7109 c -0.08894,0.009 -0.17454,0.0203 -0.257347,0.0336 0.341678,0.12629 0.418412,0.43416 0.447,0.73795 -9.14e-4,0.28601 0.211143,0.40819 0.388607,0.55087 0.129725,0.11181 0.276523,0.28276 0.331761,0.52555 0.03535,0.15539 0.03563,0.33029 -9.98e-4,0.5365 -0.01102,0.21821 0.340903,0.33065 0.497088,0.45361 0.286279,0.27898 0.501414,0.6978 0.640929,1.30324 0.02901,0.17437 -0.09142,0.1832 0.01663,0.26723 0.562975,0.32528 1.480761,0.84992 1.47126,2.06448 l -0.06021,1.96629 c -0.01047,0.34194 -0.223248,0.63482 -0.529683,0.74569 0.08312,0.03 0.171162,0.0496 0.264068,0.0496 0.435242,0 0.834596,-0.36189 0.794781,-0.7953 l -0.180633,-1.96629 c 0.0095,-1.21457 -0.66744,-1.7392 -1.230415,-2.06448 -0.0516,-0.0298 -0.10459,-0.0546 -0.157613,-0.0796 -0.136773,-0.70775 -0.184986,-1.18394 -0.499946,-1.49087 -0.159819,-0.15574 -0.337574,-0.26066 -0.521931,-0.33279 0.06031,-0.25996 0.0679,-0.47245 0.02584,-0.65732 -0.05524,-0.24278 -0.202036,-0.41374 -0.331761,-0.52555 -0.220465,-0.16784 -0.410834,-0.2896 -0.388607,-0.55087 0.0079,-0.49504 -0.280437,-0.80074 -0.71882,-0.77153 h 1e-6 z m 2.94504,9.18497 c -0.08342,0.0302 -0.171971,0.0496 -0.265099,0.0496 -0.09291,0 -0.180949,-0.0196 -0.264068,-0.0496 v 0.31315 c 0,0.34217 -0.222173,0.63449 -0.528132,0.74518 0.08328,0.03 0.17163,0.0496 0.264584,0.0496 0.435245,0 0.792715,-0.35954 0.792715,-0.79479 z m -3.721219,-2.63034 c -0.140907,0.003 -0.29822,0.002 -0.448035,0.003 0.16551,0.002 0.319186,5.1e-4 0.477491,0 -0.0099,-4.7e-4 -0.01938,-0.003 -0.02946,-0.003 z m 1.603518,2.10375 c 3.54e-4,1.3e-4 6.8e-4,3.9e-4 0.001,5.2e-4 v -5.2e-4 c -3.25e-4,1.2e-4 -7.06e-4,-1.2e-4 -0.001,0 z"
             style="color:#000000;font-style:normal;font-variant:normal;font-weight:normal;font-stretch:normal;font-size:medium;line-height:normal;font-family:sans-serif;font-variant-ligatures:normal;font-variant-position:normal;font-variant-caps:normal;font-variant-numeric:normal;font-variant-alternates:normal;font-variant-east-asian:normal;font-feature-settings:normal;font-variation-settings:normal;text-indent:0;text-align:start;text-decoration:none;text-decoration-line:none;text-decoration-style:solid;text-decoration-color:#000000;letter-spacing:normal;word-spacing:normal;text-transform:none;writing-mode:lr-tb;direction:ltr;text-orientation:mixed;dominant-baseline:auto;baseline-shift:baseline;text-anchor:start;white-space:normal;shape-padding:0;shape-margin:0;inline-size:0;clip-rule:nonzero;display:inline;overflow:visible;visibility:visible;isolation:auto;mix-blend-mode:normal;color-interpolation:sRGB;color-interpolation-filters:linearRGB;solid-color:#000000;solid-opacity:1;vector-effect:none;fill:#d9216d;fill-opacity:1;fill-rule:nonzero;stroke:none;stroke-width:0.529164;stroke-linecap:round;stroke-linejoin:round;stroke-miterlimit:4;stroke-dasharray:none;stroke-dashoffset:0;stroke-opacity:1;color-rendering:auto;image-rendering:auto;shape-rendering:auto;text-rendering:auto;enable-background:accumulate;stop-color:#000000"
             id="path1610"
             sodipodi:nodetypes="ccccscccccscsscccscsccccccscscsscsccsscccc" />
          <path
             sodipodi:nodetypes="ccsccccc"
             d="m -25.711092,256.61538 c 1.350155,0.14956 2.580898,0.18295 3.666276,0.17939 0.296651,-0.002 0.534621,0.2326 0.530482,0.52925 -0.0026,0.18624 -0.0035,0.37272 0.0035,0.55634 0.192392,-0.002 0.384411,-9e-4 0.577226,-0.008 -0.05822,-0.51602 -0.03049,-1.0473 -0.04496,-1.61489 -1.289242,0.0306 -2.604139,-0.0209 -3.919658,-0.19121 -0.482821,-0.0354 -0.742358,0.26123 -0.812866,0.54912 z"
             style="color:#000000;font-style:normal;font-variant:normal;font-weight:normal;font-stretch:normal;font-size:medium;line-height:normal;font-family:sans-serif;font-variant-ligatures:normal;font-variant-position:normal;font-variant-caps:normal;font-variant-numeric:normal;font-variant-alternates:normal;font-variant-east-asian:normal;font-feature-settings:normal;font-variation-settings:normal;text-indent:0;text-align:start;text-decoration:none;text-decoration-line:none;text-decoration-style:solid;text-decoration-color:#000000;letter-spacing:normal;word-spacing:normal;text-transform:none;writing-mode:lr-tb;direction:ltr;text-orientation:mixed;dominant-baseline:auto;baseline-shift:baseline;text-anchor:start;white-space:normal;shape-padding:0;shape-margin:0;inline-size:0;clip-rule:nonzero;display:inline;overflow:visible;visibility:visible;isolation:auto;mix-blend-mode:normal;color-interpolation:sRGB;color-interpolation-filters:linearRGB;solid-color:#000000;solid-opacity:1;vector-effect:none;fill:#e89c87;fill-opacity:1;fill-rule:nonzero;stroke:none;stroke-width:0.529167;stroke-linecap:round;stroke-linejoin:round;stroke-miterlimit:4;stroke-dasharray:none;stroke-dashoffset:0;stroke-opacity:1;color-rendering:auto;image-rendering:auto;shape-rendering:auto;text-rendering:auto;enable-background:accumulate;stop-color:#000000"
             id="path1620" />
        </g>
        <path
           id="path538"
           style="color:#000000;font-style:normal;font-variant:normal;font-weight:normal;font-stretch:normal;font-size:medium;line-height:normal;font-family:sans-serif;font-variant-ligatures:normal;font-variant-position:normal;font-variant-caps:normal;font-variant-numeric:normal;font-variant-alternates:normal;font-variant-east-asian:normal;font-feature-settings:normal;font-variation-settings:normal;text-indent:0;text-align:start;text-decoration:none;text-decoration-line:none;text-decoration-style:solid;text-decoration-color:#000000;letter-spacing:normal;word-spacing:normal;text-transform:none;writing-mode:lr-tb;direction:ltr;text-orientation:mixed;dominant-baseline:auto;baseline-shift:baseline;text-anchor:start;white-space:normal;shape-padding:0;shape-margin:0;inline-size:0;clip-rule:nonzero;display:inline;overflow:visible;visibility:visible;opacity:1;isolation:auto;mix-blend-mode:normal;color-interpolation:sRGB;color-interpolation-filters:linearRGB;solid-color:#000000;solid-opacity:1;vector-effect:none;fill:#000000;fill-opacity:1;fill-rule:evenodd;stroke:none;stroke-width:0.529167;stroke-linecap:round;stroke-linejoin:round;stroke-miterlimit:4;stroke-dasharray:none;stroke-dashoffset:0;stroke-opacity:1;color-rendering:auto;image-rendering:auto;shape-rendering:auto;text-rendering:auto;enable-background:accumulate;stop-color:#000000;stop-opacity:1"
           d="m -21.277255,249.71089 c -0.751575,0.0751 -1.282657,0.31033 -1.62109,0.67179 -0.267206,0.28539 -0.396303,0.63727 -0.440283,0.99994 -0.320553,0.0446 -0.622257,0.24076 -0.786515,0.4687 -0.160951,0.22903 -0.256011,0.49774 -0.302824,0.75396 -0.02007,0.10986 -0.03077,0.21559 -0.03256,0.31833 -0.175115,0.0244 -0.348727,0.10872 -0.472839,0.26199 -0.422841,0.5222 -0.733909,1.24969 -0.705384,1.94924 0.0115,0.36516 0.121429,0.73903 0.36742,0.98444 -0.271654,0.11085 -0.473984,0.37303 -0.46302,0.68936 -0.0149,0.28277 0.05868,0.5937 0.236161,0.67593 0.114772,0.0765 0.203076,0.0926 0.289388,0.10128 5.03e-4,0.78735 0.03648,1.66956 0.515214,2.24328 -0.0168,0.11313 -0.0525,0.33758 -0.01912,0.60461 0.03623,0.28986 0.210324,0.62617 0.579293,0.81184 l 0.47904,4.31912 c 0.03233,0.29096 0.220433,0.52052 0.513664,0.59169 1.092088,0.26539 2.185153,0.26111 3.265951,0 0.293153,-0.0708 0.482866,-0.30061 0.515214,-0.59169 l 0.479557,-4.32222 c 0.211961,-0.1045 0.369094,-0.25361 0.45992,-0.4222 0.0698,-0.12883 0.02161,-0.28985 -0.107487,-0.35915 -0.16208,-0.0717 -0.287774,-0.0244 -0.359151,0.10697 -0.05006,0.0929 -0.126685,0.17405 -0.312642,0.23823 -1.43905,0.29546 -2.934719,0.38332 -4.609538,0.002 -0.308488,-0.10421 -0.353932,-0.24245 -0.378788,-0.44131 -0.01265,-0.10123 0.0055,-0.21233 0.01757,-0.31833 1.298262,0.40308 2.487926,0.57992 3.738273,0.42375 0.144322,-0.0185 0.246594,-0.15013 0.228926,-0.29456 -0.01775,-0.14518 -0.149919,-0.24841 -0.295072,-0.23048 -1.261364,0.15469 -2.726807,-0.0611 -3.765145,-0.43615 -0.44068,-0.55987 -0.404264,-1.24407 -0.406694,-1.87482 1.242154,0.19546 2.483747,0.27878 3.736723,0.23772 0.171859,0.50332 0.569743,0.5898 1.013375,0.49247 v 0.84233 c -7e-6,0.43524 0.359553,0.79476 0.794784,0.79478 0.435245,0 0.792716,-0.35953 0.792716,-0.79478 v -0.31316 c 0.08312,0.03 0.171164,0.0496 0.264067,0.0496 0.435244,0 0.794783,-0.36006 0.794783,-0.7953 v -1.87482 c 0.005,-0.85685 -0.505532,-1.89619 -1.388547,-2.23863 -0.136837,-0.70619 -0.36552,-1.18125 -0.680062,-1.48776 -0.159808,-0.15574 -0.33759,-0.26067 -0.521932,-0.3328 0.06031,-0.25996 0.06791,-0.47245 0.02584,-0.65732 -0.103925,-0.36169 -0.370427,-0.55735 -0.632519,-0.78135 -0.05996,-0.0703 -0.09356,-0.12656 -0.08785,-0.29507 0.0065,-0.19264 -0.03177,-0.38548 -0.154513,-0.54312 -0.111257,-0.24519 -0.289859,-0.23143 -0.564307,-0.2284 z m 0.146245,0.55294 c 0.01986,0.0255 0.04845,0.098 0.04496,0.20102 -0.0094,0.27812 0.0847,0.50601 0.212906,0.65629 0.206531,0.17053 0.406323,0.36263 0.517798,0.55448 0.01919,0.0843 0.02179,0.21653 -0.02429,0.4191 -0.401131,-0.0607 -0.840251,-0.0131 -1.206128,-0.0341 -0.553106,-0.0327 -0.797325,-0.31603 -1.233,-0.5581 0.02517,-0.29595 0.114815,-0.55133 0.306959,-0.75655 0.354181,-0.30666 0.764761,-0.49812 1.380795,-0.48214 z m -1.614889,1.90634 c 0.334695,0.30268 0.744077,0.39537 1.126546,0.41961 0.764089,0.004 1.329038,-0.0784 1.908411,0.338 0.178265,0.17373 0.344031,0.45962 0.466121,0.92501 -0.347079,-0.0668 -0.708553,-0.0738 -1.067635,-0.0579 -0.647886,0.0287 -1.300076,0.12541 -1.86707,0.0997 -0.566993,-0.0257 -1.025485,-0.15657 -1.380794,-0.56069 -0.102175,-0.11621 -0.223061,-0.21451 -0.356567,-0.28939 -0.01153,-0.082 -0.01734,-0.20016 0.0088,-0.34313 0.0349,-0.19103 0.113295,-0.3983 0.216524,-0.54519 0.318704,-0.37234 0.649113,-0.22821 0.94568,0.0139 z m -1.212846,1.51361 c 0.471682,0.53648 1.112961,0.70892 1.753898,0.73794 0.640936,0.029 1.30582,-0.0706 1.915645,-0.0977 0.471254,-0.0209 0.900214,0.004 1.262456,0.13539 0.930051,0.35904 1.184343,1.28798 1.224215,1.85518 v 1.83555 c 0,0.14926 -0.11636,0.26562 -0.265617,0.26562 -0.14926,-10e-6 -0.26407,-0.11636 -0.264067,-0.26562 -5.55e-4,-0.14532 -0.118231,-0.26298 -0.26355,-0.26355 -0.146125,-5.8e-4 -0.265047,0.11742 -0.265617,0.26355 v 1.05885 c 0,0.14926 -0.114292,0.26562 -0.263549,0.26562 -0.14926,-10e-6 -0.26562,-0.11636 -0.265617,-0.26562 v -1.58595 c 5.82e-4,-0.14613 -0.117424,-0.26505 -0.26355,-0.26562 -0.14029,-5.3e-4 -0.256607,0.10853 -0.2651,0.24857 -0.0061,0.2162 -0.06335,0.28266 -0.264596,0.2806 -0.221548,0.004 -0.263661,-0.13407 -0.265617,-0.29507 v -1.06609 c -0.0021,-0.1674 -0.144325,-0.27941 -0.299741,-0.27079 -1.116425,0.0353 -2.254238,0.002 -3.395658,-0.108 -0.359013,-0.0721 -0.585728,-0.21026 -0.730188,-0.37931 -0.150106,-0.17566 -0.224054,-0.39531 -0.234611,-0.65422 -0.02111,-0.51781 0.241837,-1.16817 0.588077,-1.59577 0.220052,-0.16253 0.367059,0.004 0.562787,0.1664 z m -1.00614,2.90783 c 1.294694,0.16418 2.798967,0.22105 3.98632,0.19586 v 0.55604 c -1.492579,0.0358 -2.961278,-0.0952 -4.202844,-0.29662 -0.009,-0.0388 -0.01909,-0.12075 -0.02377,-0.2558 -0.0053,-0.1532 0.07773,-0.22047 0.240296,-0.19947 z m 1.37511,4.7656 c 1.494867,0.28875 2.868693,0.24007 4.164087,0.004 l -0.460954,4.14445 c -0.0032,0.0284 -0.09238,0.13024 -0.111621,0.13488 -1.003528,0.24245 -2.004933,0.2481 -3.017387,0.002 -0.01907,-0.005 -0.110006,-0.10845 -0.113172,-0.13694 z"
           sodipodi:nodetypes="csccsccccccccscccccccccccscsccccccccscccccccccccccccccccccccccccscsccccccccsccscsccccccccccsccccccsccccccsccc" />
      </g>
    </g>
  </g>
</svg>
