<?xml version="1.0" encoding="UTF-8"?>
<svg width="14px" height="36px" viewBox="0 0 14 36" version="1.1" xmlns="http://www.w3.org/2000/svg" xmlns:xlink="http://www.w3.org/1999/xlink">
    <!-- Generator: Sketch 51.2 (57519) - http://www.bohemiancoding.com/sketch -->
    <title>Long_IceCream_color</title>
    <desc>Created with Sketch.</desc>
    <defs></defs>
    <g id="Page-1" stroke="none" stroke-width="1" fill="none" fill-rule="evenodd">
        <g id="Artboard" transform="translate(-278.000000, -553.000000)">
            <g id="Sweets" transform="translate(41.000000, 491.000000)">
                <g id="color" transform="translate(57.000000, 63.000000)">
                    <g id="Long_IceCream_" transform="translate(180.000000, 0.000000)">
                        <g id="Long_x5F_IceCream_2_" transform="translate(1.000000, 0.000000)" fill-rule="nonzero">
                            <path d="M4.8,25.9 L8.1,25.9 L8.1,32.6 C8.1,33.5 7.4,34.3 6.4,34.3 C5.5,34.3 4.7,33.6 4.7,32.6 L4.7,25.9 L4.8,25.9 Z" id="Shape" fill="#9DD6C9"></path>
                            <path d="M10.8,25.9 L2.1,25.9 C1,25.9 0.1,25 0.1,23.9 L0.1,6.9 C0.1,3.4 2.9,0.6 6.4,0.6 C9.9,0.6 12.7,3.4 12.7,6.9 L12.7,23.8 C12.8,25 12,25.9 10.8,25.9 Z" id="Shape" fill="#FDE2E1"></path>
                        </g>
                        <g id="Long_x5F_IceCream_1_" stroke="#201009" stroke-linecap="round" stroke-linejoin="round" stroke-width="0.5">
                            <path d="M8.7,25.4 L8.7,32 C8.7,32.9 8,33.7 7,33.7 C6.1,33.7 5.3,33 5.3,32 L5.3,25.4" id="Shape"></path>
                            <path d="M11.4,25.4 L2.7,25.4 C1.6,25.4 0.7,24.5 0.7,23.4 L0.7,6.4 C0.7,2.9 3.5,0.1 7,0.1 C10.5,0.1 13.3,2.9 13.3,6.4 L13.3,23.3 C13.4,24.5 12.5,25.4 11.4,25.4 Z" id="Shape"></path>
                            <path d="M12.1,20.5 L12.1,21.9 C12.1,23 11.2,23.9 10.1,23.9 L9,23.9" id="Shape"></path>
                            <path d="M7,1.6 C7.9,1.4 9.1,1.6 9.7,2.1" id="Shape"></path>
                            <path d="M1.9,6.1 C2.4,4.4 3.5,3.1 5,2.3" id="Shape"></path>
                        </g>
                    </g>
                </g>
            </g>
        </g>
    </g>
</svg>