<?xml version="1.0" encoding="UTF-8"?>
<svg width="18px" height="34px" viewBox="0 0 18 34" version="1.1" xmlns="http://www.w3.org/2000/svg" xmlns:xlink="http://www.w3.org/1999/xlink">
    <!-- Generator: Sketch 51.2 (57519) - http://www.bohemiancoding.com/sketch -->
    <title>IceCream_color</title>
    <desc>Created with Sketch.</desc>
    <defs></defs>
    <g id="Page-1" stroke="none" stroke-width="1" fill="none" fill-rule="evenodd">
        <g id="Perview" transform="translate(-221.000000, -554.000000)">
            <g id="Sweets" transform="translate(41.000000, 491.000000)">
                <g id="color" transform="translate(57.000000, 63.000000)">
                    <g id="IceCream_" transform="translate(123.000000, 1.000000)">
                        <g id="Group" fill-rule="nonzero">
                            <path d="M1.1,13.3 C1,12.6 1.7,11.9 2.8,11.8 C7.2,11.3 11.6,11.3 16,11.8 C17.1,11.9 17.8,12.6 17.7,13.3 C16.8,18.8 10.7,32.4 9.4,32.4 C8.1,32.3 2.1,18.8 1.1,13.3 Z" id="Shape" fill="#BAD7DF"></path>
                            <path d="M14.9,15 C15.2,15.4 15.1,15.7 14.8,16.1 C14.5,16.6 13.7,16.8 13.1,16.5 C12.6,16.2 12.4,15.5 12.7,15 C13.5,14.4 13,11.5 12,11.4 C7.8,11.2 2.3,11.5 1.5,12.2 C0.7,12.9 0.8,10.1 0.8,8.9 C0.8,4.2 4.6,0.5 9.2,0.5 C13.8,0.5 17.6,4.3 17.6,8.9 C17.6,10.1 17.8,12.9 16.9,12.2 C16.7,12 16.1,11.8 15.2,11.7 C14.5,11.9 14.1,14.7 14.9,15" id="Shape" fill="#FDE2E1"></path>
                        </g>
                        <g id="Group" stroke="#201009" stroke-linecap="round" stroke-linejoin="round" stroke-width="0.5">
                            <path d="M16.8208313,11.9200439 C17,12 17.4,12.4 17.3,12.8 C16.4,18.3 10.3,31.9 9,31.9 C7.7,31.9 0.7,18.5 0.7,12.8 C0.7,12.1 0.8,12 0.9,11.8" id="Shape"></path>
                            <path d="M10.1,28.2 C9.6,29 9.2,29.5 8.9,29.5 C8.7,29.5 8.3,29 7.7,28.2" id="Shape"></path>
                            <path d="M11.6,25.6 C11.4,26.1 11.1,26.5 10.9,26.9" id="Shape"></path>
                            <path d="M2.3,14.4 C3.2,14.3 4,14.2 4.9,14.2" id="Shape"></path>
                            <path d="M12.1,17.5 C12.9,17.5 13.7,17.6 14.5,17.7" id="Shape"></path>
                            <path d="M3.4,17.7 C5.5,17.5 7.6,17.4 9.7,17.4" id="Shape"></path>
                            <path d="M14.4,15.6 C14.1,16.1 13.3,16.3 12.7,16 C12.2,15.7 12,15 12.3,14.5 C12.6,14 13.2,11 11.6,10.9 C7.4,10.7 1.9,11 1.1,11.7 C0.3,12.4 0.4,9.6 0.4,8.4 C0.4,3.7 4.2,-1.77635684e-15 8.8,-1.77635684e-15 C13.4,-1.77635684e-15 17.2,3.8 17.2,8.4 C17.2,9.6 17.4,12.4 16.5,11.7 C16.3,11.6 16,11.4 15.5,11.3 C15,11.2 14.4,11 14.1,12 C14,12.9 14,14 14.5,14.5 C14.8,14.9 14.7,15.2 14.4,15.6 Z" id="Shape"></path>
                            <path d="M11.4,2.3 C12.4,2.5 13.3,2.9 14.1,3.3" id="Shape"></path>
                            <path d="M4,4.3 C5.5,2.9 7.5,2.1 9.7,2.1" id="Shape"></path>
                            <path d="M7.6,14.1 C8.89243005,14.1 10.1270616,14.1 11.3917777,14.1439414" id="Shape"></path>
                        </g>
                    </g>
                </g>
            </g>
        </g>
    </g>
</svg>